<svg style="position: absolute; width: 0; height: 0; overflow: hidden;" version="1.1" xmlns="http://www.w3.org/2000/svg" xmlns:xlink="http://www.w3.org/1999/xlink">
<defs>

<symbol id="i-catalog" viewBox="0 0 10400 6004.4">
<path d="M5887.2 4693.2l1063.3 0c47.4,0 90.5,-19.3 121.6,-50.2 30.9,-31.1 50.2,-74.2 50.2,-121.6l0 -831.9c0,-47.4 -19.3,-90.5 -50.2,-121.6 -31.1,-30.9 -74.2,-50.2 -121.6,-50.2l-1063.3 0c-47.3,0 -90.4,19.3 -121.5,50.2 -31,31.2 -50.2,74.2 -50.2,121.6l0 831.9c0,47.4 19.2,90.5 50.2,121.6 31.1,31 74.2,50.2 121.5,50.2zm1063.3 575l-1063.3 0c-141.4,0 -270.1,-58 -363.4,-151.3l-0.7 -0.7c-93.3,-93.3 -151.3,-222 -151.3,-363.5l0 -1063.2c0,-141.5 58,-270.1 151.3,-363.5l0.7 -0.7c93.3,-93.3 222,-151.3 363.4,-151.3l1063.3 0c141.5,0 270.2,58 363.5,151.3l0.7 0.7c93.3,93.3 151.3,222 151.3,363.5l0 1063.2c0,141.5 -58,270.2 -151.3,363.5l-0.7 0.7c-93.3,93.3 -222,151.3 -363.5,151.3zm-3501 -575l1063.2 0c47.4,0 90.5,-19.3 121.6,-50.2 31,-31.1 50.2,-74.2 50.2,-121.6l0 -831.9c0,-47.4 -19.2,-90.4 -50.2,-121.6 -31.1,-30.9 -74.2,-50.2 -121.6,-50.2l-1063.2 0c-47.4,0 -90.5,19.3 -121.6,50.2 -31,31.1 -50.2,74.2 -50.2,121.6l0 831.9c0,47.4 19.2,90.5 50.2,121.6 31.1,31 74.2,50.2 121.6,50.2zm1063.2 575l-1063.2 0c-141.5,0 -270.2,-58 -363.5,-151.3l-0.7 -0.7c-93.3,-93.3 -151.3,-222 -151.3,-363.5l0 -1063.2c0,-141.5 58,-270.2 151.3,-363.5l0.7 -0.7c93.3,-93.3 222,-151.3 363.5,-151.3l1063.2 0c141.5,0 270.2,58 363.5,151.3l0.7 0.7c93.3,93.3 151.3,222 151.3,363.5l0 1063.2c0,141.5 -58,270.2 -151.3,363.5l-0.7 0.7c-93.3,93.3 -222,151.3 -363.5,151.3zm1374.5 -3012.8l1063.3 0c47.4,0 90.5,-19.3 121.6,-50.2 30.9,-31.1 50.2,-74.2 50.2,-121.6l0 -832c0,-47.3 -19.3,-90.4 -50.2,-121.5 -31.1,-31 -74.2,-50.2 -121.6,-50.2l-1063.3 0c-47.3,0 -90.4,19.2 -121.5,50.2 -31,31.1 -50.2,74.2 -50.2,121.6l0 831.9c0,47.4 19.2,90.5 50.2,121.6 31.1,30.9 74.2,50.2 121.5,50.2zm1063.3 575l-1063.3 0c-141.4,-0.1 -270.1,-58 -363.4,-151.3l-0.7 -0.7c-93.3,-93.3 -151.3,-222.1 -151.3,-363.5l0 -1063.2c0,-141.5 58,-270.2 151.3,-363.5l0.7 -0.7c93.3,-93.3 222,-151.3 363.4,-151.3l1063.3 0c141.5,0 270.2,58 363.5,151.3l0.7 0.7c93.3,93.3 151.3,222 151.3,363.4l0 1063.3c0,141.4 -58,270.2 -151.3,363.5l-0.7 0.7c-93.3,93.3 -222,151.3 -363.5,151.3zm-3501 -575l1063.2 0c47.4,0 90.5,-19.3 121.6,-50.2 31,-31.1 50.2,-74.2 50.2,-121.6l0 -832c0,-47.3 -19.2,-90.4 -50.2,-121.5 -31.1,-31 -74.2,-50.2 -121.6,-50.2l-1063.2 0c-47.4,0 -90.5,19.2 -121.6,50.2 -31,31.1 -50.2,74.2 -50.2,121.6l0 831.9c0,47.4 19.2,90.4 50.2,121.6 31.1,30.9 74.2,50.2 121.6,50.2zm1063.2 575l-1063.2 0c-141.5,0 -270.2,-58 -363.5,-151.3l-0.7 -0.7c-93.3,-93.3 -151.3,-222 -151.3,-363.5l0 -1063.2c0,-141.5 58,-270.2 151.3,-363.5l0.7 -0.7c93.3,-93.3 222,-151.3 363.5,-151.3l1063.2 0c141.5,0 270.2,58 363.5,151.3l0.7 0.7c93.3,93.3 151.3,222 151.3,363.4l0 1063.3c0,141.4 -58,270.2 -151.3,363.5l-0.7 0.7c-93.3,93.3 -222,151.3 -363.5,151.3z"/>
</symbol>

<symbol id="i-home" viewBox="0 0 2749.64 1587.5">
<path d="M984.12 1202.29l781.4 0 0 -487.65 -390.7 -369.32 -390.7 369.32 0 487.65zm651.56 -828.3l0 -111.81 158.12 0 0.01 261.29 130.47 123.33 0 714.25 -79.38 0 -1019.54 0 0 -714.25 549.46 -519.4 260.86 246.59z"/>
</symbol>

<symbol id="i-logo" viewBox="0 0 10400 6004.4">
<path d="M6431.7 2569.5c118.2,-243.6 111,-460.4 175.4,-662.2 59.6,-187.1 272.4,-545.5 495.2,-322.7 119.6,119.6 90,322 142.2,377.4l0.1 0c4,5.1 8.7,10 14.1,14.5 171.5,143.2 773,100.7 754.5,-104.7 -2.3,-25.4 -14.9,-53.5 -40.9,-79.7l0 0 -0.2 -0.2c-7.6,-7.7 -16.4,-15.2 -26.4,-22.5 -35.2,-29.3 -82.3,-68.2 -155.6,-149.4 -120.9,-133.7 -163.2,-424 -299.7,-572.2 -292.2,-317.1 -723.6,-309.2 -1016.7,-16.1 -171.4,171.4 -230.9,399.7 -565.3,734.1 -39.3,39.3 -83.6,72.6 -130,101l0 -0.2 0 0.2c-221.1,135 -490,155.5 -490,155.5 0,0 267.3,-43.2 476.6,-197 -88.7,-255.9 -247.1,-404.1 -344.3,-592.2 -90.1,-174.5 -193.1,-578.4 122,-578.4 169.2,0 291.3,164 367.4,166.3l0.1 -0.1c6.5,0.8 13.2,0.9 20.2,0.3 222.5,-20 617.8,-475.4 459.5,-607.6 -19.5,-16.3 -48.4,-27.2 -85.3,-27.4l0 0 -0.2 0c-10.9,0 -22.4,0.9 -34.6,2.8 -45.6,4.2 -106.4,9.9 -215.7,4.4 -180,-9.1 -415.2,-184.5 -616.5,-192.7 -430.8,-17.6 -730.3,293 -730.3,707.5 0,242.4 119.3,445.9 119.3,918.8 0,55.6 -7.7,110.5 -20.5,163.3 -60.9,251.8 -236.5,456.5 -236.5,456.5 0,0 158.5,-219.6 197.7,-476.3 -243.6,-118.2 -460.4,-111 -662.2,-175.3 -187.1,-59.7 -545.5,-272.5 -322.7,-495.3 119.6,-119.6 321.9,-90 377.4,-142.2l0 -0.1c5.1,-4 10,-8.7 14.5,-14.1 143.2,-171.5 100.7,-772.9 -104.8,-754.5 -25.3,2.3 -53.4,14.9 -79.6,40.9l-0.1 0 -0.1 0.2c-7.7,7.7 -15.2,16.4 -22.5,26.4 -29.3,35.2 -68.2,82.3 -149.4,155.6 -133.7,120.9 -424,163.2 -572.2,299.7 -317.1,292.2 -309.2,723.6 -16.1,1016.7 171.4,171.4 399.7,230.9 734.1,565.3 39.3,39.3 72.6,83.6 100.9,130l-0.1 0.1 0.1 -0.1c135,221.1 155.5,490 155.5,490 0,0 -43.1,-267.3 -196.9,-476.6 -255.8,88.7 -404.1,247.1 -592.2,344.3 -174.5,90.1 -578.4,193.1 -578.4,-122 0,-169.1 164,-291.3 166.2,-367.4l0 0c0.8,-6.6 0.9,-13.3 0.3,-20.3 -20,-222.5 -475.4,-617.8 -607.6,-459.5 -16.3,19.5 -27.2,48.4 -27.4,85.3l0 0 0 0.3c0,10.8 0.9,22.3 2.8,34.5 4.2,45.6 9.9,106.5 4.4,215.7 -9.1,180 -184.4,415.2 -192.7,616.5 -17.6,430.8 292.9,730.3 707.5,730.3 242.4,0 445.9,-119.3 918.8,-119.3 55.6,0 110.5,7.7 163.3,20.5 251.8,60.9 456.5,236.5 456.5,236.5 0,0 -219.5,-158.5 -476.3,-197.7 -118.2,243.6 -111,460.4 -175.4,662.2 -59.6,187.1 -272.4,545.5 -495.2,322.8 -119.6,-119.7 -90,-322 -142.2,-377.4l-0.1 0c-4,-5.2 -8.7,-10.1 -14.1,-14.6 -171.5,-143.2 -772.9,-100.6 -754.5,104.8 2.3,25.3 14.9,53.4 40.9,79.6l0 0 0.2 0.2c7.6,7.7 16.4,15.2 26.4,22.5 35.2,29.3 82.3,68.3 155.6,149.4 120.9,133.7 163.2,424.1 299.7,572.2 292.2,317.1 723.6,309.3 1016.7,16.2 171.4,-171.5 230.9,-399.8 565.3,-734.2 39.3,-39.2 83.6,-72.6 130,-100.9l0 0c221.1,-135 490,-155.5 490,-155.5 0,0 -267.3,43.1 -476.6,196.9 88.7,255.9 247.1,404.1 344.3,592.3 90.1,174.4 193.1,578.3 -122,578.3 -169.2,0 -291.3,-164 -367.4,-166.2l0 0c-6.5,-0.7 -13.3,-0.9 -20.3,-0.3 -222.5,20 -617.8,475.4 -459.5,607.6 19.6,16.3 48.4,27.2 85.3,27.4l0 0 0.2 0c10.9,0.1 22.4,-0.9 34.6,-2.8 45.6,-4.1 106.4,-9.9 215.7,-4.4 180.1,9.1 415.3,184.5 616.5,192.7 430.8,17.6 730.3,-292.9 730.3,-707.4 0,-242.5 -119.3,-446 -119.3,-918.9 0,-55.5 7.7,-110.5 20.5,-163.3 60.9,-251.8 236.5,-456.4 236.5,-456.4 0,0 -158.5,219.5 -197.7,476.2 243.6,118.2 460.5,111 662.2,175.4 187.1,59.6 545.5,272.4 322.7,495.2 -119.6,119.6 -321.9,90 -377.4,142.2l0.1 0.1c-5.2,4 -10,8.7 -14.6,14.1 -143.2,171.5 -100.7,772.9 104.8,754.5 25.3,-2.3 53.4,-14.9 79.7,-40.9l0 0 0.1 -0.2c7.7,-7.6 15.2,-16.4 22.5,-26.4 29.3,-35.2 68.3,-82.3 149.4,-155.6 133.8,-120.9 424,-163.2 572.2,-299.7 317.1,-292.2 309.2,-723.6 16.1,-1016.7 -171.4,-171.4 -399.7,-230.9 -734.1,-565.3 -39.3,-39.3 -72.6,-83.6 -100.9,-130l0.1 0 -0.1 0c-135,-221.1 -155.5,-490 -155.5,-490 0,0 43.1,267.3 196.9,476.6 255.9,-88.7 404.1,-247.1 592.2,-344.3 174.6,-90.1 578.4,-193 578.4,122 0,169.2 -164,291.3 -166.2,367.4l0 0c-0.8,6.5 -0.9,13.3 -0.3,20.4 20,222.4 475.4,617.7 607.6,459.4 16.3,-19.5 27.2,-48.3 27.4,-85.3l0 0 0 -0.2c0,-10.9 -0.9,-22.4 -2.8,-34.6 -4.2,-45.6 -9.9,-106.4 -4.4,-215.7 9.1,-180 184.5,-415.2 192.7,-616.5 17.6,-430.8 -292.9,-730.3 -707.5,-730.3 -242.4,0 -445.9,119.4 -918.8,119.4 -55.6,0 -110.5,-7.8 -163.3,-20.6 -251.8,-60.9 -456.4,-236.5 -456.4,-236.5 0,0 219.5,158.5 476.2,197.7zm-2526 -1958.1c-7.8,-277.2 89.3,-376.4 161.6,-382.9 186.8,-16.8 225.5,530.2 95.3,686.1 -74.3,88.9 -249.3,-25.9 -256.9,-303.2zm2069.6 -215c190.6,-201.5 329.4,-203 385.1,-156.5 144,120.3 -215.5,534.4 -417.8,552.6 -115.4,10.3 -157.9,-194.6 32.7,-396.1zm1830.5 3381.1c201.5,190.6 203.1,329.4 156.5,385.1 -120.2,144 -534.4,-215.5 -552.6,-417.8 -10.3,-115.4 194.6,-157.9 396.1,32.7zm-1311.4 1615.5c7.7,277.2 -89.4,376.5 -161.7,383 -186.8,16.8 -225.5,-530.2 -95.3,-686.2 74.3,-88.9 249.3,25.9 257,303.2zm-2069.7 215c-190.6,201.5 -329.4,203.1 -385.1,156.5 -144,-120.3 215.5,-534.4 417.8,-552.5 115.4,-10.4 157.9,194.5 -32.7,396zm-1615.5 -1311.4c-277.2,7.7 -376.5,-89.3 -383,-161.7 -16.8,-186.8 530.2,-225.5 686.2,-95.3 88.9,74.3 -25.9,249.3 -303.2,257zm-214.9 -2069.6c-201.5,-190.7 -203.1,-329.5 -156.6,-385.2 120.3,-144 534.4,215.5 552.6,417.8 10.3,115.4 -194.6,157.9 -396,-32.6zm4996.5 -519.1c277.2,-7.8 376.5,89.3 383,161.6 16.8,186.9 -530.2,225.5 -686.2,95.3 -88.9,-74.3 25.9,-249.3 303.2,-256.9z"/>
</symbol>

<symbol id="i-pencil" viewBox="0 0 2749.64 1587.5">
<path d="M1472.37 1184.61l-509.37 322.43 23.59 -600.66 512.14 -887.05 484.81 279.92 -511.17 885.36zm-149.57 -143.46l446.85 -773.97 -208.18 -120.21 -446.85 773.97 208.18 120.21zm43.83 116.74l-303.04 -174.97 -10.01 245.28 105.63 60.99 207.42 -131.3z"/>
</symbol>

<symbol id="i-search" viewBox="0 0 3466.7 2001.5">
<path class="fil2" d="M1181.4 451.9c111,-111 256.6,-166.5 402.1,-166.5 145.5,0 291.1,55.5 402.1,166.5 111,111 166.6,256.6 166.6,402.1 0,113.9 -34.1,227.8 -102,325.2l360.7 360.8c39.1,39 39.1,102.4 0,141.5 -39,39 -102.4,39 -141.5,0l-360.7 -360.8c-97.4,68 -211.3,102 -325.2,102 -145.5,0 -291.1,-55.5 -402.1,-166.5 -111.1,-111.1 -166.6,-256.6 -166.6,-402.2 0,-145.5 55.5,-291 166.6,-402.1zm402.1 0.3c-102.9,0 -205.7,39.2 -284.2,117.7 -78.5,78.4 -117.7,181.3 -117.7,284.1 0,102.9 39.2,205.8 117.7,284.2 78.5,78.5 181.3,117.7 284.2,117.7 102.8,0 205.7,-39.2 284.2,-117.7 78.4,-78.4 117.7,-181.3 117.7,-284.2 0,-102.8 -39.3,-205.7 -117.7,-284.1 -78.5,-78.5 -181.4,-117.7 -284.2,-117.7z"/>
</symbol>

<symbol id="i-shuffle" viewBox="0 0 5200 3002.2">
<path d="M3323.1 1044.6l-268.2 0c-21.3,0 -40.3,6 -57.7,16.2 -24.2,14.1 -47,35.3 -68.9,60.2l-328.3 373.9 328.3 373.9c21.9,25 44.7,46.1 68.9,60.3 17.4,10.1 36.4,16.2 57.7,16.2l268.2 0 0 -238.9 272.4 188.1 272.4 188.1 -272.4 188.1 -272.4 188.1 0 -238.8 -268.2 0c-74,0 -138.3,-20.1 -196.1,-53.9 -51.1,-29.7 -95.6,-70.5 -136.4,-117l-304.5 -346.8 -304.5 346.7c-40.9,46.6 -85.4,87.3 -136.4,117.1 -57.8,33.8 -122.2,53.8 -196.1,53.8l-457.3 0 0 -274.6 457.3 0c21.3,0 40.3,-6.1 57.7,-16.3 24.2,-14.1 46.9,-35.3 68.8,-60.2l328.3 -373.9 -328.3 -373.9c-21.9,-24.9 -44.6,-46.1 -68.8,-60.2 -17.4,-10.1 -36.4,-16.2 -57.7,-16.2l-457.3 0 0 -274.7 457.3 0c73.9,0 138.3,20.1 196.1,53.8 51,29.8 95.5,70.5 136.4,117.1l304.5 346.7 304.5 -346.7c40.8,-46.6 85.3,-87.3 136.4,-117.1 57.8,-33.8 122.1,-53.8 196.1,-53.8l268.2 0 0 -238.8 272.4 188.1 272.4 188.1 -272.4 188.1 -272.4 188.1 0 -238.9z"/>
</symbol>

<symbol id="i-skull" viewBox="0 0 2749.64 1587.5">
<path d="M1762.62 877.84l-70.44 70.44c-10.32,10.33 -22.89,15.53 -37.49,15.53l-57.31 0c-14.76,0 -27.46,-5.33 -37.81,-15.86l-68.94 -70.17c-10.12,-10.3 -15.2,-22.72 -15.2,-37.15l0 -26.81c0,-29.2 23.81,-53.01 53.01,-53.01l196.7 0c29.2,0 53.01,23.81 53.01,53.01l0 26.53c0,14.6 -5.2,27.17 -15.53,37.49zm-792.91 -37.49l0 -26.53c0,-29.2 23.81,-53.01 53.01,-53.01l196.7 0c29.2,0 53.01,23.81 53.01,53.01l0 26.53c0,14.6 -5.2,27.17 -15.53,37.49l-70.44 70.44c-10.32,10.33 -22.89,15.53 -37.49,15.53l-55.8 0c-14.6,0 -27.17,-5.2 -37.49,-15.53l-70.44 -70.44c-10.33,-10.32 -15.53,-22.89 -15.53,-37.49zm505.72 224.96l-203 0 101.5 -101.5 101.5 101.5zm302.72 -799.54l-62.87 -61.77c-25.71,-25.26 -56.73,-37.95 -92.78,-37.95l-47.35 0 -402.44 0 -46.66 0c-36.46,0 -67.84,13 -93.62,38.78l-62.72 62.72 -62.72 62.72c-25.78,25.78 -38.78,57.16 -38.78,93.62l0 247.88 0 101.5 0 46.66c0,36.46 13,67.84 38.78,93.62l62.72 62.72 62.72 62.71c25.78,25.78 38.78,57.16 38.78,93.62l0 46.66 0 85.84c0,36.46 13,67.84 38.78,93.62l23.95 23.95c25.78,25.78 57.15,38.77 93.6,38.77l294.55 0.02c36.46,0 67.84,-13 93.62,-38.78l23.94 -23.94c25.78,-25.78 38.78,-57.16 38.78,-93.62l0 -85.84 0 -46.66c0,-36.46 13,-67.84 38.78,-93.62l62.72 -62.71 62.72 -62.72c25.78,-25.78 38.78,-57.16 38.78,-93.62l0 -149.96 0 -247.21c0,-36.86 -13.3,-68.58 -39.59,-94.42l-63.69 -62.59z"/>
</symbol>

</defs>
</svg>